<mxfile host="app.diagrams.net" modified="2023-11-01T10:16:50.230Z" agent="Mozilla/5.0 (Windows NT 10.0; Win64; x64) AppleWebKit/537.36 (KHTML, like Gecko) Chrome/118.0.0.0 Safari/537.36" etag="7Pqt3nH_3K5i1Xu-IxuL" version="22.0.8" type="github">
  <diagram id="1-El4E7-JrEee6S0gWFY" name="Page-1">
    <mxGraphModel dx="607" dy="758" grid="1" gridSize="10" guides="1" tooltips="1" connect="1" arrows="1" fold="1" page="1" pageScale="1" pageWidth="827" pageHeight="1169" math="0" shadow="0">
      <root>
        <mxCell id="0" />
        <mxCell id="1" parent="0" />
        <mxCell id="JZjj2F1fBO_TSKH4vJbM-1" value="cGame" style="swimlane;fontStyle=1;align=center;verticalAlign=top;childLayout=stackLayout;horizontal=1;startSize=26;horizontalStack=0;resizeParent=1;resizeParentMax=0;resizeLast=0;collapsible=1;marginBottom=0;fontSize=15;" parent="1" vertex="1">
          <mxGeometry x="1081" y="160" width="320" height="289" as="geometry" />
        </mxCell>
        <mxCell id="JZjj2F1fBO_TSKH4vJbM-2" value="- m_isRunning : bool&#xa;- m_window : SDL_Window*&#xa;- m_renderer : SDL_Renderer*" style="text;strokeColor=none;fillColor=none;align=left;verticalAlign=top;spacingLeft=4;spacingRight=4;overflow=hidden;rotatable=0;points=[[0,0.5],[1,0.5]];portConstraint=eastwest;fontSize=15;" parent="JZjj2F1fBO_TSKH4vJbM-1" vertex="1">
          <mxGeometry y="26" width="320" height="64" as="geometry" />
        </mxCell>
        <mxCell id="JZjj2F1fBO_TSKH4vJbM-3" value="" style="line;strokeWidth=1;fillColor=none;align=left;verticalAlign=middle;spacingTop=-1;spacingLeft=3;spacingRight=3;rotatable=0;labelPosition=right;points=[];portConstraint=eastwest;" parent="JZjj2F1fBO_TSKH4vJbM-1" vertex="1">
          <mxGeometry y="90" width="320" height="8" as="geometry" />
        </mxCell>
        <mxCell id="JZjj2F1fBO_TSKH4vJbM-4" value="+ cGame()&#xa;+ ~cGame()&#xa;&#xa;+ Initialize() : void&#xa;+ HandleEvents() : void&#xa;+ Update() : void&#xa;+ Render() : void&#xa;+ Clean() : void&#xa;&#xa;+ IsRunning(): bool" style="text;strokeColor=none;fillColor=none;align=left;verticalAlign=top;spacingLeft=4;spacingRight=4;overflow=hidden;rotatable=0;points=[[0,0.5],[1,0.5]];portConstraint=eastwest;fontSize=15;" parent="JZjj2F1fBO_TSKH4vJbM-1" vertex="1">
          <mxGeometry y="98" width="320" height="191" as="geometry" />
        </mxCell>
        <mxCell id="JZjj2F1fBO_TSKH4vJbM-5" value="cPlayer" style="swimlane;fontStyle=1;align=center;verticalAlign=top;childLayout=stackLayout;horizontal=1;startSize=26;horizontalStack=0;resizeParent=1;resizeParentMax=0;resizeLast=0;collapsible=1;marginBottom=0;fontSize=15;" parent="1" vertex="1">
          <mxGeometry x="860" y="520" width="320" height="289" as="geometry" />
        </mxCell>
        <mxCell id="JZjj2F1fBO_TSKH4vJbM-6" value="- m_" style="text;strokeColor=none;fillColor=none;align=left;verticalAlign=top;spacingLeft=4;spacingRight=4;overflow=hidden;rotatable=0;points=[[0,0.5],[1,0.5]];portConstraint=eastwest;fontSize=15;" parent="JZjj2F1fBO_TSKH4vJbM-5" vertex="1">
          <mxGeometry y="26" width="320" height="64" as="geometry" />
        </mxCell>
        <mxCell id="JZjj2F1fBO_TSKH4vJbM-7" value="" style="line;strokeWidth=1;fillColor=none;align=left;verticalAlign=middle;spacingTop=-1;spacingLeft=3;spacingRight=3;rotatable=0;labelPosition=right;points=[];portConstraint=eastwest;" parent="JZjj2F1fBO_TSKH4vJbM-5" vertex="1">
          <mxGeometry y="90" width="320" height="8" as="geometry" />
        </mxCell>
        <mxCell id="JZjj2F1fBO_TSKH4vJbM-8" value="+ cPlayer()&#xa;+ ~cPlayer()" style="text;strokeColor=none;fillColor=none;align=left;verticalAlign=top;spacingLeft=4;spacingRight=4;overflow=hidden;rotatable=0;points=[[0,0.5],[1,0.5]];portConstraint=eastwest;fontSize=15;" parent="JZjj2F1fBO_TSKH4vJbM-5" vertex="1">
          <mxGeometry y="98" width="320" height="191" as="geometry" />
        </mxCell>
        <mxCell id="JZjj2F1fBO_TSKH4vJbM-9" value="cGameObject" style="swimlane;fontStyle=1;align=center;verticalAlign=top;childLayout=stackLayout;horizontal=1;startSize=26;horizontalStack=0;resizeParent=1;resizeParentMax=0;resizeLast=0;collapsible=1;marginBottom=0;fontSize=15;" parent="1" vertex="1">
          <mxGeometry x="1220" y="520" width="320" height="289" as="geometry" />
        </mxCell>
        <mxCell id="JZjj2F1fBO_TSKH4vJbM-10" value="# m_xPosition&#xa;# m_yPosition" style="text;strokeColor=none;fillColor=none;align=left;verticalAlign=top;spacingLeft=4;spacingRight=4;overflow=hidden;rotatable=0;points=[[0,0.5],[1,0.5]];portConstraint=eastwest;fontSize=15;" parent="JZjj2F1fBO_TSKH4vJbM-9" vertex="1">
          <mxGeometry y="26" width="320" height="64" as="geometry" />
        </mxCell>
        <mxCell id="JZjj2F1fBO_TSKH4vJbM-11" value="" style="line;strokeWidth=1;fillColor=none;align=left;verticalAlign=middle;spacingTop=-1;spacingLeft=3;spacingRight=3;rotatable=0;labelPosition=right;points=[];portConstraint=eastwest;" parent="JZjj2F1fBO_TSKH4vJbM-9" vertex="1">
          <mxGeometry y="90" width="320" height="8" as="geometry" />
        </mxCell>
        <mxCell id="JZjj2F1fBO_TSKH4vJbM-12" value="+ Temp" style="text;strokeColor=none;fillColor=none;align=left;verticalAlign=top;spacingLeft=4;spacingRight=4;overflow=hidden;rotatable=0;points=[[0,0.5],[1,0.5]];portConstraint=eastwest;fontSize=15;" parent="JZjj2F1fBO_TSKH4vJbM-9" vertex="1">
          <mxGeometry y="98" width="320" height="191" as="geometry" />
        </mxCell>
        <mxCell id="JZjj2F1fBO_TSKH4vJbM-13" value="cEnemy" style="swimlane;fontStyle=1;align=center;verticalAlign=top;childLayout=stackLayout;horizontal=1;startSize=26;horizontalStack=0;resizeParent=1;resizeParentMax=0;resizeLast=0;collapsible=1;marginBottom=0;fontSize=15;" parent="1" vertex="1">
          <mxGeometry x="1600" y="520" width="320" height="289" as="geometry" />
        </mxCell>
        <mxCell id="JZjj2F1fBO_TSKH4vJbM-14" value="# temp" style="text;strokeColor=none;fillColor=none;align=left;verticalAlign=top;spacingLeft=4;spacingRight=4;overflow=hidden;rotatable=0;points=[[0,0.5],[1,0.5]];portConstraint=eastwest;fontSize=15;" parent="JZjj2F1fBO_TSKH4vJbM-13" vertex="1">
          <mxGeometry y="26" width="320" height="64" as="geometry" />
        </mxCell>
        <mxCell id="JZjj2F1fBO_TSKH4vJbM-15" value="" style="line;strokeWidth=1;fillColor=none;align=left;verticalAlign=middle;spacingTop=-1;spacingLeft=3;spacingRight=3;rotatable=0;labelPosition=right;points=[];portConstraint=eastwest;" parent="JZjj2F1fBO_TSKH4vJbM-13" vertex="1">
          <mxGeometry y="90" width="320" height="8" as="geometry" />
        </mxCell>
        <mxCell id="JZjj2F1fBO_TSKH4vJbM-16" value="+ Temp" style="text;strokeColor=none;fillColor=none;align=left;verticalAlign=top;spacingLeft=4;spacingRight=4;overflow=hidden;rotatable=0;points=[[0,0.5],[1,0.5]];portConstraint=eastwest;fontSize=15;" parent="JZjj2F1fBO_TSKH4vJbM-13" vertex="1">
          <mxGeometry y="98" width="320" height="191" as="geometry" />
        </mxCell>
        <mxCell id="a2q2rbhTiaOq0QiOvMgw-1" value="cInputHandler" style="swimlane;fontStyle=1;align=center;verticalAlign=top;childLayout=stackLayout;horizontal=1;startSize=26;horizontalStack=0;resizeParent=1;resizeParentMax=0;resizeLast=0;collapsible=1;marginBottom=0;fontSize=15;" parent="1" vertex="1">
          <mxGeometry x="1540" y="150" width="320" height="289" as="geometry" />
        </mxCell>
        <mxCell id="a2q2rbhTiaOq0QiOvMgw-2" value="# temp" style="text;strokeColor=none;fillColor=none;align=left;verticalAlign=top;spacingLeft=4;spacingRight=4;overflow=hidden;rotatable=0;points=[[0,0.5],[1,0.5]];portConstraint=eastwest;fontSize=15;" parent="a2q2rbhTiaOq0QiOvMgw-1" vertex="1">
          <mxGeometry y="26" width="320" height="64" as="geometry" />
        </mxCell>
        <mxCell id="a2q2rbhTiaOq0QiOvMgw-3" value="" style="line;strokeWidth=1;fillColor=none;align=left;verticalAlign=middle;spacingTop=-1;spacingLeft=3;spacingRight=3;rotatable=0;labelPosition=right;points=[];portConstraint=eastwest;" parent="a2q2rbhTiaOq0QiOvMgw-1" vertex="1">
          <mxGeometry y="90" width="320" height="8" as="geometry" />
        </mxCell>
        <mxCell id="a2q2rbhTiaOq0QiOvMgw-4" value="+ Temp" style="text;strokeColor=none;fillColor=none;align=left;verticalAlign=top;spacingLeft=4;spacingRight=4;overflow=hidden;rotatable=0;points=[[0,0.5],[1,0.5]];portConstraint=eastwest;fontSize=15;" parent="a2q2rbhTiaOq0QiOvMgw-1" vertex="1">
          <mxGeometry y="98" width="320" height="191" as="geometry" />
        </mxCell>
        <mxCell id="a2q2rbhTiaOq0QiOvMgw-5" value="cLevel" style="swimlane;fontStyle=1;align=center;verticalAlign=top;childLayout=stackLayout;horizontal=1;startSize=26;horizontalStack=0;resizeParent=1;resizeParentMax=0;resizeLast=0;collapsible=1;marginBottom=0;fontSize=15;" parent="1" vertex="1">
          <mxGeometry x="1150" y="870" width="320" height="289" as="geometry" />
        </mxCell>
        <mxCell id="a2q2rbhTiaOq0QiOvMgw-6" value="# m" style="text;strokeColor=none;fillColor=none;align=left;verticalAlign=top;spacingLeft=4;spacingRight=4;overflow=hidden;rotatable=0;points=[[0,0.5],[1,0.5]];portConstraint=eastwest;fontSize=15;" parent="a2q2rbhTiaOq0QiOvMgw-5" vertex="1">
          <mxGeometry y="26" width="320" height="64" as="geometry" />
        </mxCell>
        <mxCell id="a2q2rbhTiaOq0QiOvMgw-7" value="" style="line;strokeWidth=1;fillColor=none;align=left;verticalAlign=middle;spacingTop=-1;spacingLeft=3;spacingRight=3;rotatable=0;labelPosition=right;points=[];portConstraint=eastwest;" parent="a2q2rbhTiaOq0QiOvMgw-5" vertex="1">
          <mxGeometry y="90" width="320" height="8" as="geometry" />
        </mxCell>
        <mxCell id="a2q2rbhTiaOq0QiOvMgw-8" value="+ Temp" style="text;strokeColor=none;fillColor=none;align=left;verticalAlign=top;spacingLeft=4;spacingRight=4;overflow=hidden;rotatable=0;points=[[0,0.5],[1,0.5]];portConstraint=eastwest;fontSize=15;" parent="a2q2rbhTiaOq0QiOvMgw-5" vertex="1">
          <mxGeometry y="98" width="320" height="191" as="geometry" />
        </mxCell>
        <mxCell id="a2q2rbhTiaOq0QiOvMgw-9" value="cNPC" style="swimlane;fontStyle=1;align=center;verticalAlign=top;childLayout=stackLayout;horizontal=1;startSize=26;horizontalStack=0;resizeParent=1;resizeParentMax=0;resizeLast=0;collapsible=1;marginBottom=0;fontSize=15;" parent="1" vertex="1">
          <mxGeometry x="1570" y="870" width="320" height="289" as="geometry" />
        </mxCell>
        <mxCell id="a2q2rbhTiaOq0QiOvMgw-10" value="# temp" style="text;strokeColor=none;fillColor=none;align=left;verticalAlign=top;spacingLeft=4;spacingRight=4;overflow=hidden;rotatable=0;points=[[0,0.5],[1,0.5]];portConstraint=eastwest;fontSize=15;" parent="a2q2rbhTiaOq0QiOvMgw-9" vertex="1">
          <mxGeometry y="26" width="320" height="64" as="geometry" />
        </mxCell>
        <mxCell id="a2q2rbhTiaOq0QiOvMgw-11" value="" style="line;strokeWidth=1;fillColor=none;align=left;verticalAlign=middle;spacingTop=-1;spacingLeft=3;spacingRight=3;rotatable=0;labelPosition=right;points=[];portConstraint=eastwest;" parent="a2q2rbhTiaOq0QiOvMgw-9" vertex="1">
          <mxGeometry y="90" width="320" height="8" as="geometry" />
        </mxCell>
        <mxCell id="a2q2rbhTiaOq0QiOvMgw-12" value="+ Temp" style="text;strokeColor=none;fillColor=none;align=left;verticalAlign=top;spacingLeft=4;spacingRight=4;overflow=hidden;rotatable=0;points=[[0,0.5],[1,0.5]];portConstraint=eastwest;fontSize=15;" parent="a2q2rbhTiaOq0QiOvMgw-9" vertex="1">
          <mxGeometry y="98" width="320" height="191" as="geometry" />
        </mxCell>
      </root>
    </mxGraphModel>
  </diagram>
</mxfile>
